<svg xmlns="http://www.w3.org/2000/svg" id="canvas" viewBox="289.217 326.953 1288.084 174.490"><path d="M 353.81,358.41 C 352.89 358.07, 351.72 357.73, 349.45 358.21 C 347.18 358.69, 345.73 359.03, 342.45 360.80 C 339.18 362.56, 337.10 363.68, 333.07 367.05 C 329.03 370.43, 326.68 372.53, 322.29 377.66 C 317.90 382.78, 315.29 385.97, 311.13 392.69 C 306.96 399.41, 304.72 403.38, 301.45 411.26 C 298.18 419.14, 296.62 423.79, 294.78 432.09 C 292.94 440.39, 292.37 444.95, 292.24 452.76 C 292.11 460.57, 292.49 464.50, 294.14 471.13 C 295.79 477.77, 297.24 481.11, 300.51 485.93 C 303.79 490.76, 305.98 492.77, 310.51 495.27 C 315.04 497.78, 317.90 498.49, 323.17 498.44 C 328.44 498.39, 331.45 497.71, 336.86 495.02 C 342.28 492.33, 345.12 490.12, 350.27 484.99 C 355.41 479.87, 358.03 476.46, 362.60 469.38 C 367.17 462.31, 369.37 458.00, 373.10 449.63 C 376.83 441.26, 378.51 436.37, 381.26 427.52 C 384.00 418.67, 385.11 413.76, 386.82 405.37 C 388.54 396.99, 389.08 392.53, 389.84 385.60 C 390.60 378.67, 390.77 375.26, 390.62 370.72 C 390.47 366.18, 390.14 364.42, 389.10 362.91 C 388.05 361.41, 386.74 361.43, 385.41 363.18 C 384.08 364.94, 383.44 366.92, 382.47 371.68 C 381.49 376.44, 381.09 379.98, 380.53 386.97 C 379.98 393.97, 379.76 398.49, 379.69 406.65 C 379.62 414.81, 379.76 419.64, 380.19 427.76 C 380.61 435.88, 380.92 440.38, 381.81 447.23 C 382.70 454.08, 383.21 457.38, 384.63 462.01 C 386.04 466.64, 386.78 468.48, 388.88 470.39 C 390.98 472.29, 392.60 472.43, 395.13 471.53 C 397.65 470.63, 399.00 469.05, 401.50 465.88 C 404.00 462.71, 405.26 460.07, 407.64 455.68 C 410.01 451.29, 411.35 448.14, 413.37 443.93 C 415.40 439.71, 416.55 437.33, 417.77 434.60 C 418.99 431.86, 419.18 430.67, 419.49 430.26 C 419.80 429.84, 419.28 430.43, 419.31 432.52 C 419.35 434.61, 419.30 436.83, 419.66 440.72 C 420.02 444.60, 420.34 447.47, 421.10 451.95 C 421.87 456.43, 422.22 459.18, 423.48 463.13 C 424.74 467.07, 425.49 469.19, 427.39 471.68 C 429.29 474.17, 430.54 475.05, 432.99 475.58 C 435.44 476.11, 437.04 475.94, 439.64 474.35 C 442.23 472.75, 443.48 471.08, 445.95 467.61 C 448.43 464.13, 449.68 461.61, 452.01 456.98 C 454.34 452.35, 455.49 449.12, 457.60 444.45 C 459.71 439.79, 460.99 436.94, 462.56 433.67 C 464.13 430.40, 464.76 429.02, 465.43 428.10 C 466.10 427.19, 465.78 427.38, 465.91 429.08 C 466.04 430.79, 466.02 432.81, 466.07 436.63 C 466.11 440.46, 466.11 443.59, 466.14 448.20 C 466.17 452.82, 466.04 455.74, 466.21 459.72 C 466.38 463.70, 466.31 465.84, 466.98 468.11 C 467.65 470.37, 468.46 471.14, 469.56 471.04 C 470.66 470.95, 471.57 470.04, 472.47 467.62 C 473.38 465.19, 473.47 462.91, 474.10 458.91 C 474.73 454.90, 474.97 452.07, 475.64 447.60 C 476.31 443.12, 476.71 440.46, 477.45 436.52 C 478.20 432.58, 478.70 430.61, 479.36 427.92 C 480.01 425.22, 480.01 424.16, 480.72 423.04 C 481.42 421.92, 481.68 422.01, 482.86 422.31 C 484.05 422.60, 484.64 423.42, 486.62 424.53 C 488.60 425.63, 489.97 426.76, 492.77 427.84 C 495.56 428.92, 497.39 429.42, 500.60 429.92 C 503.81 430.42, 505.55 430.66, 508.83 430.32 C 512.11 429.98, 513.85 429.34, 516.99 428.22 C 520.13 427.10, 522.05 426.14, 524.53 424.72 C 527.02 423.30, 528.08 422.03, 529.39 421.13 C 530.71 420.24, 530.84 419.66, 531.11 420.25 C 531.38 420.84, 530.92 421.55, 530.73 424.08 C 530.55 426.61, 530.51 428.73, 530.20 432.90 C 529.88 437.06, 529.44 440.15, 529.16 444.92 C 528.89 449.69, 528.72 452.59, 528.84 456.74 C 528.96 460.88, 528.92 463.23, 529.76 465.65 C 530.61 468.06, 531.65 468.45, 533.07 468.82 C 534.49 469.18, 535.68 468.45, 536.85 467.47 C 538.02 466.48, 538.86 464.84, 538.93 463.90 C 539.01 462.96, 538.01 462.42, 537.23 462.75 C 536.44 463.09, 535.75 464.67, 535.00 465.59 C 534.24 466.52, 533.95 467.50, 533.44 467.37 C 532.94 467.24, 532.82 467.08, 532.48 464.94 C 532.14 462.80, 531.83 460.63, 531.74 456.66 C 531.64 452.69, 531.66 449.79, 532.00 445.10 C 532.34 440.41, 532.96 437.41, 533.43 433.20 C 533.90 428.99, 534.54 426.87, 534.33 424.06 C 534.12 421.25, 533.59 420.24, 532.39 419.14 C 531.20 418.04, 530.31 418.15, 528.36 418.57 C 526.41 418.98, 525.17 419.95, 522.65 421.23 C 520.13 422.52, 518.59 423.85, 515.76 424.99 C 512.93 426.13, 511.40 426.69, 508.50 426.95 C 505.61 427.20, 504.11 426.89, 501.27 426.27 C 498.44 425.66, 496.95 424.91, 494.33 423.86 C 491.71 422.81, 490.45 421.82, 488.18 421.03 C 485.92 420.24, 484.85 419.80, 483.01 419.92 C 481.16 420.04, 480.31 420.20, 478.96 421.63 C 477.61 423.06, 477.11 424.20, 476.25 427.07 C 475.39 429.95, 475.37 432.00, 474.67 436.01 C 473.96 440.02, 473.51 442.65, 472.72 447.12 C 471.94 451.59, 471.43 454.41, 470.74 458.35 C 470.05 462.29, 469.55 464.43, 469.28 466.84 C 469.01 469.24, 469.31 470.20, 469.39 470.37 C 469.46 470.54, 469.69 469.84, 469.67 467.69 C 469.65 465.54, 469.37 463.52, 469.29 459.62 C 469.21 455.73, 469.26 452.82, 469.27 448.20 C 469.27 443.57, 469.58 440.46, 469.32 436.51 C 469.07 432.56, 468.96 430.38, 468.00 428.46 C 467.03 426.53, 466.08 426.08, 464.50 426.87 C 462.91 427.66, 461.91 429.07, 460.08 432.39 C 458.25 435.71, 457.41 438.76, 455.36 443.45 C 453.30 448.14, 452.12 451.34, 449.79 455.84 C 447.45 460.34, 446.04 462.76, 443.66 465.94 C 441.29 469.12, 439.95 470.28, 437.92 471.74 C 435.88 473.20, 435.12 473.61, 433.50 473.25 C 431.89 472.88, 431.31 472.11, 429.85 469.91 C 428.39 467.72, 427.35 465.96, 426.20 462.27 C 425.05 458.58, 424.76 455.85, 424.12 451.47 C 423.49 447.09, 423.44 444.27, 423.01 440.38 C 422.58 436.49, 422.75 434.24, 421.96 432.02 C 421.18 429.80, 420.48 429.03, 419.11 429.27 C 417.73 429.50, 416.72 430.49, 415.09 433.19 C 413.45 435.89, 412.89 438.53, 410.92 442.77 C 408.96 447.01, 407.59 450.11, 405.26 454.39 C 402.93 458.68, 401.48 461.18, 399.28 464.19 C 397.08 467.21, 396.04 468.53, 394.25 469.47 C 392.46 470.41, 391.89 470.48, 390.33 468.88 C 388.76 467.27, 387.81 465.82, 386.41 461.45 C 385.02 457.08, 384.30 453.77, 383.35 447.02 C 382.39 440.27, 382.05 435.75, 381.62 427.69 C 381.20 419.62, 381.06 414.78, 381.23 406.67 C 381.40 398.57, 381.74 394.06, 382.47 387.15 C 383.19 380.25, 383.93 376.77, 384.85 372.16 C 385.77 367.55, 386.47 365.83, 387.07 364.10 C 387.67 362.37, 387.53 362.18, 387.86 363.51 C 388.18 364.84, 388.59 366.38, 388.70 370.77 C 388.80 375.16, 389.01 378.59, 388.38 385.46 C 387.76 392.33, 387.24 396.78, 385.59 405.13 C 383.93 413.47, 382.84 418.36, 380.11 427.16 C 377.39 435.96, 375.70 440.83, 371.97 449.12 C 368.24 457.42, 366.02 461.69, 361.46 468.64 C 356.91 475.60, 354.26 478.93, 349.19 483.90 C 344.12 488.87, 341.31 490.93, 336.11 493.48 C 330.90 496.03, 328.11 496.59, 323.16 496.64 C 318.21 496.69, 315.62 496.05, 311.36 493.73 C 307.10 491.41, 305.01 489.62, 301.84 485.03 C 298.68 480.44, 297.20 477.23, 295.54 470.78 C 293.89 464.33, 293.47 460.46, 293.58 452.78 C 293.68 445.10, 294.23 440.57, 296.05 432.37 C 297.87 424.17, 299.42 419.55, 302.69 411.78 C 305.96 404.00, 308.20 400.07, 312.39 393.48 C 316.58 386.90, 319.21 383.76, 323.64 378.84 C 328.06 373.92, 330.47 371.93, 334.52 368.88 C 338.57 365.83, 340.73 365.13, 343.89 363.60 C 347.05 362.08, 348.29 361.99, 350.31 361.25 C 352.34 360.50, 353.32 360.44, 354.02 359.87 C 354.72 359.31, 354.72 358.74, 353.81 358.41" style="stroke: black; fill: black;"/><path d="M 531.51,384.93 C 530.96 385.09, 530.41 385.37, 530.36 385.72 C 530.31 386.07, 530.62 386.53, 531.27 386.68 C 531.91 386.83, 532.98 386.70, 533.59 386.45 C 534.20 386.21, 534.40 385.78, 534.31 385.47 C 534.21 385.16, 533.69 385.01, 533.13 384.90 C 532.57 384.79, 532.07 384.76, 531.51 384.93" style="stroke: black; fill: black;"/><path d="M 584.20,414.87 C 584.72 414.39, 585.31 413.50, 585.16 412.27 C 585.01 411.04, 584.66 409.98, 583.45 408.70 C 582.24 407.43, 581.31 406.59, 579.12 405.91 C 576.94 405.24, 575.19 404.96, 572.52 405.33 C 569.85 405.70, 568.14 406.36, 565.75 407.77 C 563.37 409.18, 562.10 410.24, 560.58 412.36 C 559.05 414.48, 558.34 415.78, 558.14 418.37 C 557.94 420.97, 558.11 422.64, 559.60 425.35 C 561.08 428.05, 562.63 429.24, 565.56 431.91 C 568.49 434.57, 570.59 435.86, 574.24 438.66 C 577.88 441.45, 580.21 443.02, 583.78 445.88 C 587.35 448.75, 589.39 450.20, 592.07 453.00 C 594.76 455.79, 595.89 457.32, 597.20 459.86 C 598.50 462.40, 598.78 463.61, 598.59 465.70 C 598.40 467.79, 597.87 468.54, 596.23 470.29 C 594.60 472.04, 593.20 473.00, 590.40 474.46 C 587.60 475.92, 585.59 476.67, 582.22 477.58 C 578.84 478.49, 576.68 478.78, 573.51 479.01 C 570.34 479.23, 568.56 479.20, 566.38 478.69 C 564.20 478.19, 563.44 478.06, 562.60 476.47 C 561.76 474.89, 561.68 473.94, 562.19 470.77 C 562.70 467.59, 563.18 465.30, 565.14 460.60 C 567.09 455.90, 568.69 452.99, 571.96 447.27 C 575.24 441.55, 577.40 438.30, 581.51 432.02 C 585.62 425.74, 588.03 422.22, 592.52 415.88 C 597.00 409.54, 599.47 406.26, 603.93 400.32 C 608.38 394.37, 610.80 391.34, 614.80 386.17 C 618.80 380.99, 620.67 378.31, 623.93 374.45 C 627.18 370.60, 629.06 368.80, 631.07 366.88 C 633.08 364.95, 633.32 364.15, 633.99 364.83 C 634.66 365.50, 634.39 366.70, 634.43 370.25 C 634.47 373.80, 634.45 376.67, 634.20 382.59 C 633.95 388.52, 633.70 392.57, 633.17 399.87 C 632.63 407.16, 632.14 411.60, 631.53 419.05 C 630.91 426.50, 630.50 430.60, 630.11 437.12 C 629.73 443.64, 629.52 446.93, 629.59 451.65 C 629.66 456.38, 629.69 458.56, 630.47 460.73 C 631.25 462.90, 632.23 463.23, 633.50 462.51 C 634.76 461.79, 635.73 460.29, 636.82 457.14 C 637.90 454.00, 638.20 451.27, 638.94 446.80 C 639.69 442.33, 639.93 439.16, 640.54 434.79 C 641.15 430.43, 641.79 427.81, 641.99 424.98 C 642.19 422.14, 641.68 421.13, 641.54 420.63 C 641.40 420.13, 641.03 420.92, 641.30 422.47 C 641.57 424.02, 641.70 425.78, 642.88 428.38 C 644.05 430.98, 645.02 432.90, 647.18 435.46 C 649.33 438.02, 650.82 439.56, 653.65 441.18 C 656.48 442.81, 658.20 443.49, 661.35 443.57 C 664.50 443.66, 666.21 443.09, 669.37 441.62 C 672.54 440.15, 674.32 438.53, 677.17 436.23 C 680.03 433.94, 681.85 432.20, 683.65 430.13 C 685.45 428.06, 685.69 426.39, 686.16 425.88 C 686.63 425.38, 686.07 425.61, 685.99 427.61 C 685.91 429.61, 685.67 431.90, 685.74 435.88 C 685.81 439.85, 685.84 443.12, 686.32 447.48 C 686.81 451.83, 686.97 454.57, 688.18 457.64 C 689.39 460.71, 690.54 461.96, 692.37 462.81 C 694.19 463.66, 695.79 462.71, 697.28 461.87 C 698.78 461.02, 699.55 459.46, 699.83 458.59 C 700.11 457.72, 699.42 457.27, 698.67 457.52 C 697.92 457.77, 697.13 459.15, 696.07 459.84 C 695.00 460.53, 694.31 461.61, 693.36 460.97 C 692.41 460.32, 692.03 459.37, 691.30 456.60 C 690.57 453.83, 690.13 451.28, 689.71 447.12 C 689.29 442.95, 689.40 439.74, 689.20 435.76 C 688.99 431.78, 689.38 429.48, 688.70 427.23 C 688.02 424.98, 687.36 424.48, 685.80 424.50 C 684.24 424.52, 683.09 425.52, 680.92 427.34 C 678.75 429.16, 677.53 431.31, 674.95 433.59 C 672.36 435.86, 670.68 437.38, 667.99 438.72 C 665.29 440.06, 663.96 440.40, 661.47 440.29 C 658.97 440.18, 657.72 439.64, 655.52 438.15 C 653.32 436.67, 652.20 435.25, 650.48 432.87 C 648.76 430.49, 648.32 428.57, 646.91 426.26 C 645.50 423.95, 644.67 422.55, 643.44 421.32 C 642.21 420.08, 641.72 419.45, 640.77 420.08 C 639.82 420.71, 639.33 421.62, 638.68 424.48 C 638.02 427.34, 638.10 430.03, 637.52 434.38 C 636.94 438.74, 636.55 441.88, 635.77 446.26 C 635.00 450.63, 634.26 453.19, 633.64 456.27 C 633.01 459.35, 632.89 460.87, 632.65 461.67 C 632.41 462.47, 632.63 462.28, 632.43 460.27 C 632.23 458.26, 631.79 456.22, 631.65 451.61 C 631.52 446.99, 631.48 443.69, 631.78 437.20 C 632.07 430.72, 632.48 426.62, 633.11 419.18 C 633.75 411.74, 634.29 407.30, 634.94 400.01 C 635.59 392.72, 635.97 388.69, 636.38 382.71 C 636.79 376.74, 637.30 373.91, 636.99 370.13 C 636.67 366.34, 636.30 364.80, 634.80 363.79 C 633.30 362.77, 631.98 363.15, 629.50 365.04 C 627.03 366.92, 625.62 369.19, 622.43 373.23 C 619.23 377.26, 617.47 379.96, 613.54 385.21 C 609.60 390.45, 607.21 393.48, 602.77 399.45 C 598.33 405.42, 595.85 408.70, 591.34 415.04 C 586.82 421.38, 584.40 424.90, 580.20 431.15 C 576.01 437.41, 573.80 440.63, 570.37 446.33 C 566.93 452.03, 565.21 454.87, 563.01 459.67 C 560.82 464.47, 559.91 466.73, 559.38 470.33 C 558.84 473.94, 559.13 475.41, 560.35 477.68 C 561.58 479.94, 562.83 480.73, 565.50 481.66 C 568.17 482.59, 570.20 482.51, 573.71 482.32 C 577.23 482.13, 579.42 481.72, 583.07 480.74 C 586.72 479.75, 588.84 479.08, 591.96 477.42 C 595.08 475.75, 596.78 474.69, 598.66 472.40 C 600.54 470.10, 601.14 468.71, 601.36 465.94 C 601.59 463.17, 601.26 461.50, 599.78 458.55 C 598.30 455.60, 596.83 454.10, 593.95 451.17 C 591.07 448.25, 588.99 446.84, 585.37 443.91 C 581.76 440.98, 579.44 439.39, 575.89 436.55 C 572.34 433.70, 570.28 432.28, 567.64 429.70 C 564.99 427.12, 563.93 425.85, 562.66 423.63 C 561.39 421.42, 561.15 420.43, 561.28 418.61 C 561.42 416.79, 562.05 415.98, 563.34 414.53 C 564.63 413.08, 565.77 412.34, 567.73 411.36 C 569.68 410.38, 571.06 409.92, 573.11 409.63 C 575.17 409.35, 576.45 409.60, 578.00 409.96 C 579.56 410.32, 580.07 410.83, 580.89 411.45 C 581.71 412.07, 581.76 412.42, 582.10 413.06 C 582.44 413.71, 582.15 414.32, 582.58 414.68 C 583.00 415.04, 583.69 415.35, 584.20 414.87" style="stroke: black; fill: black;"/><path d="M 684.55,377.81 C 684.99 377.67, 684.97 377.80, 684.97 377.76 C 684.96 377.72, 684.88 377.87, 684.53 377.60 C 684.18 377.33, 683.73 376.47, 683.20 376.40 C 682.66 376.32, 681.95 376.81, 681.87 377.23 C 681.78 377.64, 682.25 378.37, 682.78 378.48 C 683.32 378.60, 684.11 377.96, 684.55 377.81" style="stroke: black; fill: black;"/><path d="M 737.30,426.71 C 737.92 426.02, 738.38 424.92, 738.81 423.03 C 739.23 421.13, 739.66 419.70, 739.42 417.24 C 739.17 414.78, 738.79 412.79, 737.57 410.74 C 736.35 408.69, 735.33 407.76, 733.34 406.99 C 731.34 406.23, 730.00 406.01, 727.61 406.92 C 725.21 407.84, 723.61 408.87, 721.36 411.58 C 719.12 414.28, 718.10 416.36, 716.40 420.45 C 714.70 424.54, 713.78 427.40, 712.87 432.04 C 711.96 436.69, 711.71 439.45, 711.87 443.67 C 712.02 447.90, 712.33 450.24, 713.65 453.17 C 714.96 456.10, 716.18 457.41, 718.45 458.32 C 720.73 459.23, 722.40 459.09, 725.04 457.72 C 727.67 456.34, 729.08 454.79, 731.64 451.44 C 734.21 448.09, 735.53 445.50, 737.86 440.95 C 740.18 436.41, 741.40 433.19, 743.26 428.71 C 745.13 424.24, 746.31 421.59, 747.18 418.57 C 748.05 415.54, 747.78 414.11, 747.62 413.59 C 747.45 413.06, 746.77 413.69, 746.35 415.93 C 745.93 418.18, 745.64 420.62, 745.51 424.80 C 745.38 428.97, 745.29 432.14, 745.68 436.81 C 746.07 441.48, 746.39 444.33, 747.47 448.13 C 748.54 451.92, 749.22 453.73, 751.06 455.79 C 752.90 457.85, 754.18 458.46, 756.66 458.42 C 759.15 458.39, 760.81 457.78, 763.49 455.61 C 766.16 453.44, 767.40 451.49, 770.04 447.58 C 772.67 443.66, 774.11 440.81, 776.67 436.03 C 779.22 431.24, 780.60 427.95, 782.81 423.65 C 785.02 419.35, 786.40 416.93, 787.71 414.55 C 789.01 412.18, 789.07 411.40, 789.34 411.77 C 789.61 412.15, 789.17 413.35, 789.05 416.41 C 788.93 419.47, 788.80 422.35, 788.72 427.08 C 788.65 431.80, 788.44 435.34, 788.68 440.04 C 788.92 444.74, 788.90 447.33, 789.91 450.56 C 790.93 453.80, 791.74 455.11, 793.78 456.22 C 795.81 457.33, 797.36 457.37, 800.09 456.09 C 802.82 454.82, 804.32 453.06, 807.44 449.84 C 810.57 446.63, 812.39 443.99, 815.71 440.02 C 819.03 436.04, 821.06 433.27, 824.05 429.96 C 827.05 426.64, 828.81 425.02, 830.69 423.45 C 832.57 421.89, 832.88 421.34, 833.46 422.13 C 834.04 422.93, 833.66 424.29, 833.60 427.42 C 833.54 430.55, 833.41 433.31, 833.16 437.78 C 832.91 442.26, 832.33 445.36, 832.35 449.80 C 832.37 454.25, 832.22 456.73, 833.25 460.02 C 834.27 463.31, 835.17 464.88, 837.46 466.25 C 839.76 467.61, 841.31 467.87, 844.73 466.83 C 848.15 465.78, 850.76 463.85, 854.55 461.01 C 858.34 458.18, 860.59 455.83, 863.70 452.64 C 866.80 449.44, 869.04 446.78, 870.07 445.03 C 871.10 443.28, 870.49 442.76, 868.85 443.90 C 867.20 445.04, 865.04 447.77, 861.84 450.74 C 858.64 453.71, 856.46 456.06, 852.85 458.74 C 849.25 461.42, 846.65 463.04, 843.81 464.15 C 840.97 465.25, 840.21 465.26, 838.65 464.28 C 837.10 463.31, 836.70 462.15, 836.02 459.25 C 835.34 456.36, 835.21 454.07, 835.25 449.81 C 835.29 445.55, 835.94 442.47, 836.23 437.96 C 836.51 433.46, 837.02 430.68, 836.68 427.29 C 836.34 423.90, 836.04 422.23, 834.54 421.01 C 833.03 419.80, 831.66 419.79, 829.16 421.22 C 826.67 422.65, 825.17 424.75, 822.08 428.17 C 818.99 431.59, 817.04 434.40, 813.71 438.34 C 810.38 442.28, 808.43 444.84, 805.43 447.87 C 802.43 450.90, 800.83 452.16, 798.70 453.49 C 796.56 454.81, 795.96 455.23, 794.76 454.49 C 793.56 453.76, 793.34 452.73, 792.70 449.81 C 792.07 446.89, 791.76 444.44, 791.57 439.90 C 791.38 435.37, 791.66 431.86, 791.75 427.13 C 791.85 422.41, 792.44 419.53, 792.06 416.29 C 791.69 413.05, 791.22 411.59, 789.89 410.93 C 788.55 410.27, 787.25 410.66, 785.39 412.98 C 783.52 415.30, 782.72 418.13, 780.55 422.51 C 778.38 426.89, 777.09 430.18, 774.55 434.89 C 772.00 439.60, 770.44 442.37, 767.83 446.05 C 765.23 449.73, 763.78 451.28, 761.52 453.28 C 759.26 455.28, 758.23 455.88, 756.55 456.04 C 754.87 456.21, 754.39 455.83, 753.13 454.10 C 751.88 452.37, 751.14 450.88, 750.26 447.38 C 749.38 443.87, 749.03 441.08, 748.73 436.58 C 748.44 432.08, 748.73 429.00, 748.80 424.88 C 748.87 420.76, 749.41 418.33, 749.07 415.99 C 748.74 413.64, 748.07 412.83, 747.13 413.15 C 746.19 413.46, 745.64 414.65, 744.37 417.56 C 743.11 420.48, 742.59 423.28, 740.83 427.72 C 739.06 432.16, 737.84 435.37, 735.55 439.76 C 733.25 444.15, 731.78 446.62, 729.37 449.68 C 726.97 452.75, 725.53 453.79, 723.52 455.09 C 721.51 456.40, 720.75 456.81, 719.33 456.20 C 717.90 455.58, 717.34 454.55, 716.39 452.03 C 715.43 449.50, 714.75 447.46, 714.57 443.56 C 714.39 439.67, 714.57 436.95, 715.47 432.56 C 716.37 428.17, 717.37 425.37, 719.08 421.61 C 720.79 417.86, 722.06 416.14, 724.03 413.79 C 725.99 411.44, 727.25 410.73, 728.90 409.88 C 730.54 409.03, 731.23 409.04, 732.26 409.54 C 733.29 410.05, 733.50 410.78, 734.04 412.42 C 734.57 414.06, 734.69 415.65, 734.93 417.72 C 735.17 419.79, 735.08 421.01, 735.23 422.76 C 735.39 424.52, 735.29 425.70, 735.70 426.49 C 736.11 427.28, 736.68 427.40, 737.30 426.71" style="stroke: black; fill: black;"/><path d="M 960.91,365.67 C 961.16 365.94, 961.33 365.40, 961.50 365.51 C 961.68 365.62, 961.62 365.36, 961.80 366.24 C 961.97 367.13, 962.01 367.48, 962.39 369.93 C 962.78 372.38, 963.26 374.10, 963.71 378.49 C 964.17 382.89, 964.41 385.74, 964.66 391.93 C 964.91 398.11, 964.81 401.96, 964.97 409.41 C 965.13 416.86, 965.26 421.25, 965.46 429.18 C 965.65 437.11, 965.63 441.81, 965.95 449.05 C 966.27 456.30, 966.50 460.38, 967.07 465.41 C 967.64 470.44, 968.10 472.61, 968.81 474.20 C 969.52 475.79, 970.29 474.95, 970.61 473.35 C 970.94 471.75, 970.98 469.28, 970.44 466.21 C 969.89 463.14, 968.98 459.52, 967.90 458.02 C 966.82 456.51, 965.34 456.87, 965.03 458.69 C 964.72 460.50, 965.58 464.12, 966.37 467.10 C 967.15 470.08, 968.17 472.25, 968.95 473.60 C 969.73 474.96, 970.23 475.58, 970.25 473.90 C 970.27 472.21, 969.59 470.18, 969.04 465.19 C 968.50 460.21, 967.95 456.18, 967.53 448.97 C 967.11 441.76, 967.14 437.06, 966.95 429.14 C 966.77 421.23, 966.66 416.84, 966.60 409.39 C 966.55 401.94, 966.71 398.09, 966.70 391.88 C 966.68 385.67, 966.60 382.84, 966.54 378.33 C 966.49 373.82, 966.81 372.02, 966.42 369.33 C 966.03 366.63, 965.45 366.05, 964.57 364.84 C 963.70 363.63, 962.90 363.42, 962.04 363.28 C 961.18 363.15, 960.48 363.69, 960.25 364.16 C 960.02 364.64, 960.66 365.40, 960.91 365.67" style="stroke: black; fill: black;"/><path d="M 919.39,371.90 C 919.93 371.96, 919.96 371.64, 921.21 371.26 C 922.47 370.89, 923.03 370.84, 925.68 370.04 C 928.33 369.24, 930.07 368.41, 934.47 367.27 C 938.87 366.13, 941.91 365.65, 947.67 364.35 C 953.44 363.04, 956.88 362.33, 963.31 360.74 C 969.74 359.15, 973.31 358.29, 979.82 356.40 C 986.33 354.51, 989.83 353.44, 995.86 351.30 C 1001.89 349.16, 1004.89 347.97, 1009.98 345.69 C 1015.07 343.41, 1017.49 342.13, 1021.31 339.89 C 1025.13 337.65, 1027.08 336.36, 1029.06 334.49 C 1031.03 332.61, 1031.33 331.21, 1031.18 330.52 C 1031.04 329.83, 1029.88 329.53, 1028.33 331.04 C 1026.78 332.55, 1025.64 334.05, 1023.42 338.07 C 1021.19 342.08, 1019.70 344.94, 1017.22 351.13 C 1014.73 357.32, 1013.18 361.34, 1010.99 369.02 C 1008.80 376.69, 1007.73 381.27, 1006.27 389.50 C 1004.81 397.73, 1004.29 402.41, 1003.68 410.15 C 1003.08 417.89, 1002.96 422.00, 1003.24 428.19 C 1003.52 434.38, 1003.74 437.17, 1005.09 441.09 C 1006.44 445.01, 1007.53 446.50, 1009.99 447.79 C 1012.46 449.07, 1014.26 448.85, 1017.42 447.50 C 1020.57 446.15, 1022.32 444.32, 1025.75 441.03 C 1029.17 437.74, 1031.30 434.99, 1034.55 431.05 C 1037.80 427.12, 1039.58 424.42, 1041.99 421.37 C 1044.40 418.32, 1045.46 416.89, 1046.59 415.80 C 1047.72 414.72, 1047.55 414.67, 1047.64 415.94 C 1047.73 417.22, 1047.24 418.95, 1047.03 422.16 C 1046.82 425.38, 1046.69 428.06, 1046.57 432.03 C 1046.46 436.00, 1046.23 438.44, 1046.45 442.01 C 1046.67 445.57, 1046.73 447.50, 1047.67 449.85 C 1048.62 452.19, 1049.49 453.10, 1051.18 453.73 C 1052.87 454.36, 1054.02 454.29, 1056.13 453.00 C 1058.25 451.70, 1059.44 450.26, 1061.76 447.28 C 1064.08 444.29, 1065.23 441.94, 1067.74 438.06 C 1070.25 434.18, 1071.77 431.47, 1074.30 427.85 C 1076.84 424.24, 1078.53 422.21, 1080.41 419.98 C 1082.28 417.75, 1082.82 416.79, 1083.67 416.72 C 1084.53 416.65, 1084.39 417.43, 1084.70 419.64 C 1085.01 421.84, 1085.06 423.99, 1085.22 427.76 C 1085.38 431.53, 1085.32 434.41, 1085.49 438.50 C 1085.66 442.59, 1085.53 444.97, 1086.07 448.21 C 1086.62 451.45, 1087.03 453.14, 1088.23 454.69 C 1089.42 456.25, 1090.52 456.17, 1092.05 455.97 C 1093.58 455.77, 1094.79 454.91, 1095.90 453.71 C 1097.00 452.50, 1097.58 450.92, 1097.56 449.94 C 1097.54 448.97, 1096.65 448.52, 1095.81 448.83 C 1094.97 449.14, 1094.24 450.46, 1093.37 451.51 C 1092.51 452.55, 1092.14 453.63, 1091.51 454.04 C 1090.87 454.46, 1090.60 454.83, 1090.20 453.57 C 1089.80 452.32, 1089.76 450.81, 1089.48 447.76 C 1089.20 444.72, 1088.98 442.39, 1088.81 438.36 C 1088.63 434.32, 1088.88 431.47, 1088.62 427.58 C 1088.36 423.68, 1088.48 421.35, 1087.51 418.87 C 1086.53 416.38, 1085.61 415.35, 1083.75 415.15 C 1081.89 414.95, 1080.55 415.66, 1078.20 417.88 C 1075.85 420.10, 1074.57 422.53, 1071.99 426.24 C 1069.41 429.96, 1067.89 432.66, 1065.31 436.45 C 1062.74 440.25, 1061.30 442.39, 1059.11 445.21 C 1056.91 448.03, 1055.78 449.20, 1054.32 450.56 C 1052.87 451.93, 1052.60 452.34, 1051.85 452.02 C 1051.09 451.70, 1050.94 451.00, 1050.55 448.96 C 1050.15 446.93, 1049.95 445.22, 1049.87 441.86 C 1049.78 438.49, 1049.99 436.08, 1050.14 432.15 C 1050.29 428.21, 1050.76 425.57, 1050.60 422.20 C 1050.45 418.82, 1050.38 416.90, 1049.37 415.28 C 1048.35 413.67, 1047.44 413.27, 1045.52 414.12 C 1043.61 414.98, 1042.39 416.51, 1039.79 419.56 C 1037.19 422.61, 1035.69 425.47, 1032.51 429.39 C 1029.34 433.30, 1027.16 435.99, 1023.92 439.14 C 1020.68 442.29, 1018.90 443.79, 1016.31 445.15 C 1013.71 446.51, 1012.80 446.89, 1010.93 445.95 C 1009.07 445.01, 1008.19 444.02, 1006.97 440.45 C 1005.76 436.88, 1005.24 434.14, 1004.87 428.10 C 1004.49 422.06, 1004.55 417.93, 1005.10 410.26 C 1005.66 402.59, 1006.18 397.91, 1007.65 389.75 C 1009.13 381.59, 1010.21 377.02, 1012.49 369.46 C 1014.77 361.89, 1016.41 357.92, 1019.07 351.91 C 1021.73 345.90, 1023.52 343.27, 1025.78 339.41 C 1028.04 335.55, 1029.36 334.43, 1030.36 332.59 C 1031.36 330.75, 1031.41 330.28, 1030.78 330.22 C 1030.16 330.16, 1029.35 330.73, 1027.22 332.28 C 1025.09 333.84, 1023.73 335.63, 1020.13 337.98 C 1016.53 340.33, 1014.18 341.68, 1009.21 344.02 C 1004.25 346.37, 1001.27 347.56, 995.30 349.72 C 989.33 351.87, 985.84 352.95, 979.36 354.81 C 972.88 356.67, 969.32 357.51, 962.89 359.00 C 956.47 360.49, 953.04 361.16, 947.24 362.26 C 941.44 363.36, 938.43 363.72, 933.88 364.50 C 929.33 365.28, 927.30 365.29, 924.50 366.15 C 921.70 367.01, 921.07 367.84, 919.88 368.80 C 918.68 369.76, 918.64 370.32, 918.55 370.94 C 918.45 371.56, 918.86 371.84, 919.39 371.90" style="stroke: black; fill: black;"/><path d="M 1089.26,373.54 C 1089.77 373.46, 1090.24 373.66, 1090.37 373.56 C 1090.50 373.46, 1090.50 373.32, 1089.92 373.03 C 1089.34 372.75, 1088.15 372.14, 1087.47 372.14 C 1086.78 372.15, 1086.42 372.71, 1086.49 373.07 C 1086.56 373.43, 1087.28 373.84, 1087.83 373.94 C 1088.39 374.03, 1088.75 373.61, 1089.26 373.54" style="stroke: black; fill: black;"/><path d="M 1108.33,423.14 C 1108.90 423.67, 1109.92 424.08, 1111.13 424.11 C 1112.35 424.14, 1113.37 423.64, 1114.41 423.28 C 1115.44 422.92, 1115.75 422.17, 1116.32 422.29 C 1116.88 422.41, 1116.91 422.45, 1117.23 423.89 C 1117.56 425.34, 1117.63 426.63, 1117.94 429.53 C 1118.26 432.42, 1118.54 434.61, 1118.81 438.39 C 1119.07 442.17, 1118.99 444.69, 1119.26 448.43 C 1119.54 452.17, 1119.35 454.44, 1120.21 457.08 C 1121.07 459.72, 1121.90 460.87, 1123.57 461.63 C 1125.24 462.38, 1126.53 462.26, 1128.56 460.85 C 1130.59 459.44, 1131.64 457.80, 1133.72 454.57 C 1135.79 451.34, 1136.78 448.67, 1138.93 444.69 C 1141.09 440.70, 1142.50 437.96, 1144.49 434.64 C 1146.47 431.32, 1147.65 429.66, 1148.88 428.08 C 1150.11 426.50, 1150.21 426.06, 1150.63 426.75 C 1151.06 427.44, 1150.82 428.66, 1151.00 431.52 C 1151.18 434.37, 1151.21 436.96, 1151.55 441.03 C 1151.89 445.09, 1151.99 447.96, 1152.69 451.85 C 1153.39 455.74, 1153.67 457.88, 1155.07 460.49 C 1156.47 463.09, 1157.54 464.09, 1159.71 464.87 C 1161.88 465.65, 1163.47 465.77, 1165.90 464.38 C 1168.33 462.99, 1169.47 461.49, 1171.87 457.93 C 1174.27 454.36, 1175.54 451.98, 1177.91 446.56 C 1180.27 441.14, 1181.63 437.62, 1183.69 430.82 C 1185.74 424.02, 1186.67 419.89, 1188.19 412.55 C 1189.72 405.20, 1190.26 401.07, 1191.31 394.10 C 1192.35 387.14, 1192.82 383.37, 1193.43 377.73 C 1194.03 372.08, 1194.45 369.25, 1194.33 365.87 C 1194.21 362.50, 1193.66 361.15, 1192.82 360.85 C 1191.98 360.55, 1190.92 361.38, 1190.13 364.36 C 1189.34 367.34, 1189.27 369.92, 1188.88 375.73 C 1188.48 381.55, 1188.31 385.67, 1188.16 393.44 C 1188.02 401.20, 1187.99 406.19, 1188.15 414.58 C 1188.30 422.96, 1188.53 427.71, 1188.93 435.37 C 1189.33 443.03, 1189.54 446.96, 1190.14 452.88 C 1190.75 458.81, 1190.87 461.46, 1191.96 465.00 C 1193.04 468.54, 1193.84 469.91, 1195.57 470.58 C 1197.30 471.25, 1198.66 470.69, 1200.59 468.35 C 1202.53 466.00, 1203.30 463.58, 1205.24 458.88 C 1207.17 454.18, 1208.32 450.58, 1210.27 444.85 C 1212.21 439.12, 1213.19 435.31, 1214.95 430.25 C 1216.72 425.18, 1218.06 422.58, 1219.11 419.53 C 1220.16 416.48, 1220.29 415.37, 1220.19 414.99 C 1220.09 414.60, 1219.23 415.28, 1218.62 417.61 C 1218.00 419.94, 1217.69 422.33, 1217.11 426.62 C 1216.53 430.92, 1216.16 434.10, 1215.72 439.10 C 1215.28 444.10, 1214.93 447.03, 1214.91 451.62 C 1214.88 456.21, 1214.71 458.84, 1215.59 462.05 C 1216.47 465.26, 1217.63 466.35, 1219.31 467.68 C 1220.98 469.01, 1222.39 468.88, 1223.96 468.71 C 1225.53 468.54, 1226.64 467.46, 1227.16 466.83 C 1227.68 466.20, 1227.23 465.62, 1226.55 465.56 C 1225.88 465.51, 1224.91 466.48, 1223.77 466.55 C 1222.63 466.61, 1221.93 466.93, 1220.86 465.89 C 1219.78 464.85, 1219.07 464.19, 1218.40 461.33 C 1217.72 458.48, 1217.49 456.02, 1217.50 451.63 C 1217.51 447.24, 1217.92 444.29, 1218.46 439.37 C 1219.00 434.45, 1219.61 431.33, 1220.18 427.04 C 1220.76 422.75, 1221.40 420.43, 1221.35 417.93 C 1221.30 415.43, 1220.86 414.42, 1219.93 414.55 C 1218.99 414.67, 1218.11 415.55, 1216.68 418.54 C 1215.25 421.53, 1214.51 424.39, 1212.79 429.50 C 1211.07 434.62, 1210.07 438.42, 1208.09 444.10 C 1206.10 449.78, 1204.82 453.36, 1202.88 457.89 C 1200.93 462.42, 1199.72 464.46, 1198.36 466.76 C 1197.01 469.06, 1196.96 469.85, 1196.09 469.38 C 1195.23 468.91, 1194.87 467.75, 1194.02 464.41 C 1193.16 461.08, 1192.54 458.52, 1191.81 452.69 C 1191.08 446.87, 1190.83 442.92, 1190.39 435.29 C 1189.95 427.66, 1189.72 422.92, 1189.62 414.55 C 1189.52 406.19, 1189.61 401.21, 1189.90 393.48 C 1190.19 385.76, 1190.52 381.65, 1191.08 375.92 C 1191.64 370.19, 1192.42 367.78, 1192.71 364.83 C 1193.01 361.89, 1192.72 360.98, 1192.58 361.19 C 1192.43 361.39, 1192.19 362.57, 1191.99 365.84 C 1191.80 369.12, 1192.04 371.95, 1191.59 377.56 C 1191.14 383.16, 1190.73 386.94, 1189.74 393.87 C 1188.76 400.81, 1188.21 404.94, 1186.66 412.23 C 1185.12 419.51, 1184.17 423.61, 1182.03 430.30 C 1179.89 437.00, 1178.45 440.46, 1175.98 445.68 C 1173.50 450.89, 1171.97 453.14, 1169.64 456.38 C 1167.32 459.62, 1166.17 460.62, 1164.35 461.90 C 1162.52 463.18, 1161.81 463.32, 1160.53 462.76 C 1159.25 462.21, 1158.88 461.41, 1157.96 459.11 C 1157.04 456.82, 1156.52 454.97, 1155.92 451.30 C 1155.33 447.63, 1155.30 444.81, 1155.01 440.76 C 1154.71 436.70, 1155.13 434.05, 1154.45 431.02 C 1153.78 427.98, 1153.12 426.55, 1151.64 425.59 C 1150.17 424.63, 1149.04 424.72, 1147.08 426.20 C 1145.12 427.69, 1144.01 429.60, 1141.84 433.01 C 1139.67 436.41, 1138.43 439.26, 1136.24 443.21 C 1134.05 447.17, 1132.79 449.69, 1130.88 452.79 C 1128.97 455.88, 1127.99 457.23, 1126.70 458.69 C 1125.40 460.14, 1125.05 460.55, 1124.40 460.07 C 1123.75 459.59, 1123.79 458.67, 1123.44 456.30 C 1123.09 453.93, 1122.87 451.82, 1122.65 448.20 C 1122.44 444.59, 1122.47 442.05, 1122.36 438.21 C 1122.25 434.38, 1122.51 432.14, 1122.11 429.03 C 1121.71 425.93, 1121.33 424.52, 1120.38 422.67 C 1119.43 420.83, 1118.70 420.46, 1117.35 419.79 C 1116.00 419.12, 1115.02 419.22, 1113.65 419.33 C 1112.27 419.43, 1111.54 419.87, 1110.47 420.30 C 1109.39 420.73, 1108.69 420.90, 1108.26 421.47 C 1107.83 422.04, 1107.75 422.61, 1108.33 423.14" style="stroke: black; fill: black;"/><path d="M 1247.64,405.61 C 1247.98 406.06, 1248.35 406.41, 1249.52 406.58 C 1250.69 406.75, 1251.39 406.82, 1253.49 406.45 C 1255.59 406.09, 1256.89 405.80, 1260.01 404.76 C 1263.14 403.71, 1264.97 403.03, 1269.11 401.24 C 1273.26 399.46, 1275.73 398.25, 1280.74 395.84 C 1285.74 393.44, 1288.66 391.97, 1294.14 389.22 C 1299.63 386.47, 1302.68 384.90, 1308.15 382.08 C 1313.63 379.25, 1316.52 377.69, 1321.52 375.08 C 1326.51 372.46, 1329.09 371.19, 1333.12 369.00 C 1337.15 366.80, 1339.14 365.76, 1341.68 364.10 C 1344.23 362.43, 1345.12 361.54, 1345.83 360.68 C 1346.55 359.82, 1346.35 359.52, 1345.27 359.79 C 1344.20 360.07, 1343.09 360.58, 1340.45 362.04 C 1337.80 363.49, 1336.01 364.80, 1332.04 367.07 C 1328.08 369.35, 1325.57 370.73, 1320.62 373.41 C 1315.68 376.08, 1312.79 377.64, 1307.32 380.46 C 1301.85 383.28, 1298.79 384.82, 1293.30 387.50 C 1287.80 390.19, 1284.86 391.62, 1279.82 393.86 C 1274.79 396.10, 1272.29 397.25, 1268.12 398.70 C 1263.95 400.15, 1262.07 400.37, 1258.97 401.12 C 1255.87 401.86, 1254.56 401.91, 1252.61 402.42 C 1250.66 402.94, 1250.20 403.31, 1249.24 403.68 C 1248.27 404.06, 1248.10 403.91, 1247.78 404.29 C 1247.46 404.68, 1247.29 405.15, 1247.64 405.61" style="stroke: black; fill: black;"/><path d="M 1282.69,378.58 C 1282.25 379.52, 1281.81 380.63, 1281.92 383.23 C 1282.03 385.83, 1282.52 387.54, 1283.24 391.60 C 1283.96 395.65, 1284.45 398.28, 1285.53 403.51 C 1286.60 408.74, 1287.28 411.80, 1288.61 417.73 C 1289.93 423.67, 1290.68 427.14, 1292.17 433.18 C 1293.66 439.22, 1294.39 442.39, 1296.04 447.92 C 1297.70 453.45, 1298.52 456.15, 1300.46 460.84 C 1302.40 465.52, 1303.51 467.93, 1305.76 471.36 C 1308.01 474.78, 1309.32 476.15, 1311.70 477.96 C 1314.09 479.76, 1315.69 480.03, 1317.69 480.38 C 1319.68 480.73, 1320.89 480.06, 1321.69 479.70 C 1322.48 479.33, 1322.33 478.88, 1321.65 478.56 C 1320.97 478.24, 1319.91 478.71, 1318.28 478.11 C 1316.66 477.51, 1315.64 477.18, 1313.53 475.56 C 1311.42 473.94, 1309.96 473.11, 1307.72 470.01 C 1305.48 466.90, 1304.30 464.57, 1302.31 460.05 C 1300.33 455.52, 1299.48 452.85, 1297.81 447.39 C 1296.13 441.93, 1295.40 438.76, 1293.94 432.75 C 1292.49 426.74, 1291.75 423.25, 1290.53 417.32 C 1289.31 411.38, 1288.71 408.31, 1287.84 403.08 C 1286.96 397.84, 1286.70 395.18, 1286.16 391.14 C 1285.63 387.11, 1285.56 385.43, 1285.15 382.90 C 1284.75 380.38, 1284.63 379.41, 1284.13 378.54 C 1283.64 377.68, 1283.13 377.65, 1282.69 378.58" style="stroke: black; fill: black;"/><path d="M 1364.00,434.91 C 1364.21 434.21, 1364.19 433.44, 1363.66 432.10 C 1363.13 430.76, 1362.76 429.61, 1361.35 428.20 C 1359.93 426.78, 1358.78 425.71, 1356.59 425.02 C 1354.40 424.33, 1353.01 424.15, 1350.41 424.74 C 1347.81 425.33, 1346.24 425.90, 1343.58 427.98 C 1340.91 430.05, 1339.41 431.66, 1337.08 435.14 C 1334.74 438.61, 1333.50 440.95, 1331.89 445.36 C 1330.27 449.76, 1329.57 452.60, 1328.99 457.16 C 1328.40 461.72, 1328.31 464.30, 1328.96 468.16 C 1329.60 472.01, 1330.33 474.12, 1332.21 476.42 C 1334.09 478.72, 1335.67 479.55, 1338.36 479.67 C 1341.05 479.79, 1342.71 479.11, 1345.64 477.02 C 1348.58 474.94, 1350.09 473.13, 1353.04 469.25 C 1355.99 465.36, 1357.61 462.51, 1360.37 457.61 C 1363.14 452.71, 1364.70 449.45, 1366.87 444.76 C 1369.04 440.08, 1370.26 437.33, 1371.22 434.18 C 1372.19 431.04, 1372.02 429.65, 1371.71 429.04 C 1371.40 428.42, 1370.41 429.04, 1369.67 431.09 C 1368.94 433.14, 1368.34 435.26, 1368.02 439.27 C 1367.70 443.27, 1367.75 446.55, 1368.07 451.10 C 1368.40 455.65, 1368.66 458.33, 1369.64 462.02 C 1370.62 465.71, 1371.21 467.46, 1372.95 469.53 C 1374.69 471.60, 1375.94 472.28, 1378.35 472.37 C 1380.77 472.46, 1382.44 471.99, 1385.04 469.99 C 1387.64 468.00, 1388.83 466.01, 1391.36 462.38 C 1393.88 458.75, 1395.31 456.08, 1397.65 451.82 C 1399.98 447.56, 1401.40 444.59, 1403.03 441.08 C 1404.66 437.57, 1405.25 435.62, 1405.78 434.29 C 1406.31 432.96, 1405.88 432.94, 1405.67 434.42 C 1405.46 435.90, 1405.06 437.94, 1404.74 441.68 C 1404.42 445.42, 1404.11 448.62, 1404.06 453.11 C 1404.01 457.59, 1403.90 460.54, 1404.49 464.09 C 1405.09 467.64, 1405.58 469.21, 1407.05 470.86 C 1408.52 472.52, 1409.70 472.97, 1411.83 472.37 C 1413.96 471.77, 1415.33 470.66, 1417.69 467.86 C 1420.05 465.06, 1421.24 462.45, 1423.62 458.39 C 1426.00 454.32, 1427.37 451.56, 1429.58 447.52 C 1431.80 443.47, 1433.24 441.08, 1434.71 438.16 C 1436.17 435.25, 1436.52 433.75, 1436.90 432.94 C 1437.28 432.13, 1436.75 432.54, 1436.62 434.11 C 1436.49 435.68, 1436.19 437.46, 1436.26 440.79 C 1436.33 444.12, 1436.49 446.64, 1436.98 450.76 C 1437.48 454.88, 1437.71 457.51, 1438.74 461.39 C 1439.76 465.26, 1440.31 467.41, 1442.12 470.15 C 1443.94 472.89, 1445.17 474.24, 1447.82 475.10 C 1450.46 475.97, 1452.27 476.06, 1455.36 474.49 C 1458.44 472.91, 1460.10 471.18, 1463.25 467.22 C 1466.40 463.26, 1468.05 460.45, 1471.11 454.67 C 1474.16 448.89, 1475.86 445.25, 1478.51 438.31 C 1481.16 431.37, 1482.37 427.16, 1484.35 419.96 C 1486.33 412.77, 1487.16 408.70, 1488.40 402.31 C 1489.65 395.93, 1490.24 392.37, 1490.59 388.05 C 1490.95 383.73, 1490.80 381.83, 1490.19 380.72 C 1489.59 379.62, 1488.45 379.95, 1487.56 382.52 C 1486.68 385.09, 1486.39 387.80, 1485.77 393.57 C 1485.15 399.34, 1484.83 403.70, 1484.46 411.38 C 1484.08 419.07, 1484.05 423.91, 1483.89 431.99 C 1483.74 440.07, 1483.65 444.52, 1483.66 451.78 C 1483.68 459.03, 1483.73 462.77, 1483.96 468.25 C 1484.19 473.74, 1484.08 476.16, 1484.81 479.21 C 1485.55 482.26, 1486.25 483.23, 1487.64 483.49 C 1489.02 483.74, 1490.14 483.04, 1491.73 480.48 C 1493.33 477.92, 1493.72 475.40, 1495.62 470.68 C 1497.51 465.95, 1498.70 462.61, 1501.22 456.86 C 1503.73 451.11, 1505.35 447.45, 1508.20 441.92 C 1511.04 436.39, 1512.65 433.43, 1515.43 429.20 C 1518.21 424.98, 1519.88 423.22, 1522.09 420.79 C 1524.30 418.36, 1525.17 417.77, 1526.48 417.07 C 1527.78 416.37, 1528.10 416.70, 1528.62 417.30 C 1529.13 417.90, 1529.21 418.60, 1529.05 420.07 C 1528.89 421.54, 1528.61 422.55, 1527.83 424.63 C 1527.04 426.71, 1526.57 428.12, 1525.14 430.47 C 1523.70 432.81, 1522.67 434.29, 1520.65 436.35 C 1518.63 438.42, 1517.18 439.31, 1515.03 440.80 C 1512.88 442.29, 1511.80 442.81, 1509.92 443.81 C 1508.04 444.80, 1507.02 444.93, 1505.64 445.77 C 1504.26 446.60, 1503.72 446.90, 1503.01 447.99 C 1502.30 449.07, 1502.02 449.70, 1502.10 451.20 C 1502.19 452.70, 1502.41 453.56, 1503.45 455.50 C 1504.50 457.45, 1505.32 458.53, 1507.31 460.92 C 1509.30 463.31, 1510.62 464.61, 1513.39 467.46 C 1516.16 470.31, 1517.81 472.11, 1521.16 475.16 C 1524.51 478.20, 1526.41 479.92, 1530.14 482.68 C 1533.87 485.44, 1535.99 486.82, 1539.81 488.97 C 1543.62 491.12, 1545.56 492.13, 1549.21 493.43 C 1552.86 494.74, 1554.71 495.14, 1558.06 495.50 C 1561.40 495.86, 1563.29 495.64, 1565.95 495.24 C 1568.61 494.84, 1569.74 494.23, 1571.36 493.49 C 1572.98 492.75, 1573.60 492.11, 1574.06 491.52 C 1574.51 490.93, 1574.31 490.63, 1573.62 490.53 C 1572.93 490.44, 1572.24 490.80, 1570.61 491.06 C 1568.98 491.32, 1567.95 491.55, 1565.49 491.84 C 1563.03 492.13, 1561.39 492.68, 1558.31 492.51 C 1555.22 492.33, 1553.52 492.08, 1550.06 490.94 C 1546.61 489.81, 1544.70 488.87, 1541.01 486.82 C 1537.32 484.77, 1535.23 483.43, 1531.62 480.71 C 1528.01 477.99, 1526.16 476.29, 1522.98 473.22 C 1519.80 470.15, 1518.21 468.32, 1515.71 465.36 C 1513.21 462.40, 1512.25 460.81, 1510.47 458.42 C 1508.69 456.04, 1507.94 454.98, 1506.80 453.42 C 1505.66 451.86, 1505.18 451.46, 1504.78 450.63 C 1504.37 449.81, 1504.35 449.75, 1504.78 449.31 C 1505.21 448.87, 1505.60 448.91, 1506.93 448.43 C 1508.25 447.96, 1509.37 447.83, 1511.42 446.94 C 1513.47 446.05, 1514.78 445.54, 1517.17 443.97 C 1519.56 442.39, 1521.07 441.32, 1523.37 439.06 C 1525.66 436.81, 1526.96 435.30, 1528.65 432.68 C 1530.34 430.05, 1531.10 428.48, 1531.82 425.92 C 1532.53 423.35, 1532.62 421.86, 1532.23 419.85 C 1531.83 417.84, 1531.15 416.80, 1529.84 415.86 C 1528.53 414.91, 1527.59 414.49, 1525.67 415.13 C 1523.75 415.78, 1522.63 416.50, 1520.23 419.09 C 1517.84 421.68, 1516.45 423.70, 1513.70 428.09 C 1510.95 432.48, 1509.37 435.46, 1506.49 441.04 C 1503.60 446.62, 1501.92 450.26, 1499.27 455.98 C 1496.62 461.71, 1495.26 465.05, 1493.24 469.68 C 1491.22 474.31, 1490.25 476.55, 1489.16 479.14 C 1488.07 481.72, 1488.21 482.66, 1487.80 482.59 C 1487.39 482.51, 1487.51 481.65, 1487.11 478.77 C 1486.70 475.88, 1486.15 473.55, 1485.76 468.15 C 1485.38 462.75, 1485.26 458.99, 1485.19 451.77 C 1485.12 444.54, 1485.19 440.08, 1485.41 432.02 C 1485.63 423.97, 1485.77 419.13, 1486.28 411.49 C 1486.79 403.85, 1487.25 399.52, 1487.97 393.83 C 1488.68 388.13, 1489.58 385.62, 1489.84 383.03 C 1490.11 380.43, 1489.56 379.91, 1489.28 380.87 C 1489.01 381.83, 1488.98 383.60, 1488.47 387.83 C 1487.96 392.06, 1487.86 395.66, 1486.73 402.00 C 1485.61 408.35, 1484.81 412.41, 1482.86 419.56 C 1480.91 426.70, 1479.68 430.88, 1476.99 437.72 C 1474.31 444.56, 1472.54 448.16, 1469.43 453.77 C 1466.32 459.37, 1464.52 462.09, 1461.45 465.75 C 1458.37 469.40, 1456.62 470.65, 1454.07 472.03 C 1451.51 473.41, 1450.54 473.35, 1448.67 472.65 C 1446.80 471.95, 1446.12 470.93, 1444.72 468.53 C 1443.32 466.13, 1442.55 464.27, 1441.68 460.64 C 1440.81 457.02, 1440.72 454.43, 1440.38 450.41 C 1440.03 446.40, 1440.27 443.92, 1439.96 440.57 C 1439.64 437.22, 1439.59 435.42, 1438.80 433.68 C 1438.02 431.94, 1437.40 431.28, 1436.04 431.87 C 1434.67 432.46, 1433.78 433.78, 1432.00 436.64 C 1430.21 439.50, 1429.31 442.14, 1427.13 446.19 C 1424.95 450.23, 1423.50 452.95, 1421.10 456.88 C 1418.71 460.82, 1417.18 463.16, 1415.17 465.85 C 1413.15 468.54, 1412.29 469.58, 1411.02 470.34 C 1409.75 471.09, 1409.48 470.93, 1408.82 469.60 C 1408.16 468.27, 1407.99 466.97, 1407.73 463.68 C 1407.46 460.39, 1407.42 457.52, 1407.49 453.15 C 1407.57 448.78, 1408.08 445.63, 1408.09 441.83 C 1408.10 438.02, 1408.28 435.84, 1407.53 434.11 C 1406.79 432.38, 1405.82 432.04, 1404.38 433.16 C 1402.93 434.29, 1402.13 436.26, 1400.30 439.73 C 1398.47 443.20, 1397.49 446.31, 1395.23 450.51 C 1392.96 454.70, 1391.43 457.30, 1388.98 460.70 C 1386.53 464.10, 1385.12 465.64, 1383.00 467.50 C 1380.88 469.36, 1379.94 469.91, 1378.36 469.99 C 1376.78 470.07, 1376.26 469.63, 1375.10 467.90 C 1373.94 466.16, 1373.33 464.70, 1372.57 461.30 C 1371.80 457.90, 1371.50 455.26, 1371.27 450.90 C 1371.04 446.54, 1371.25 443.36, 1371.43 439.48 C 1371.62 435.61, 1372.25 433.64, 1372.19 431.50 C 1372.14 429.37, 1371.88 428.46, 1371.17 428.81 C 1370.45 429.15, 1369.90 430.22, 1368.61 433.22 C 1367.31 436.21, 1366.74 439.13, 1364.70 443.78 C 1362.65 448.43, 1361.11 451.69, 1358.37 456.47 C 1355.64 461.25, 1353.91 464.04, 1351.02 467.68 C 1348.13 471.32, 1346.45 472.79, 1343.93 474.68 C 1341.42 476.57, 1340.32 477.13, 1338.42 477.13 C 1336.53 477.13, 1335.81 476.57, 1334.45 474.69 C 1333.10 472.80, 1332.24 471.14, 1331.65 467.70 C 1331.07 464.26, 1330.98 461.77, 1331.52 457.48 C 1332.06 453.20, 1332.75 450.41, 1334.34 446.28 C 1335.94 442.15, 1337.22 439.93, 1339.49 436.83 C 1341.76 433.73, 1343.35 432.49, 1345.69 430.77 C 1348.04 429.05, 1349.28 428.67, 1351.20 428.24 C 1353.12 427.81, 1353.88 428.01, 1355.31 428.61 C 1356.73 429.21, 1357.24 430.16, 1358.32 431.23 C 1359.40 432.30, 1359.84 433.09, 1360.70 433.96 C 1361.56 434.84, 1361.97 435.42, 1362.63 435.61 C 1363.29 435.80, 1363.80 435.61, 1364.00 434.91" style="stroke: black; fill: black;"/></svg>